<svg width="24" height="21" viewBox="0 0 24 21" fill="none" xmlns="http://www.w3.org/2000/svg">
<path d="M5.55 15.2308L6.255 12.6212H9.261L9.966 15.2308H11.8575L8.8515 5.07862H6.7695L3.75 15.2308H5.55ZM7.8045 7.0197L8.9055 11.1252H6.624L7.725 7.0197H7.8045ZM14.943 7.23632C13.3545 7.23632 12.3135 8.53093 12.3135 10.6937V11.8699C12.3135 14.0343 13.341 15.3272 14.9235 15.3272C15.939 15.3272 16.7565 14.7688 16.974 13.9666H17.0595V15.2308H18.7665V4.54385H17.0265V8.5377H16.947C16.677 7.73385 15.927 7.23462 14.943 7.23462V7.23632ZM15.5235 8.79832C16.3935 8.79832 17.0265 9.54293 17.0265 10.7242V11.7429C17.0265 13.0291 16.4325 13.7737 15.5505 13.7737C14.6535 13.7737 14.0925 13.0139 14.0925 11.6617V10.8951C14.0925 9.5497 14.6475 8.79662 15.5235 8.79662V8.79832Z" fill="#F9D49A"/>
<path d="M21 1.69231C21.3978 1.69231 21.7794 1.8706 22.0607 2.18797C22.342 2.50534 22.5 2.93579 22.5 3.38462V16.9231C22.5 17.3719 22.342 17.8023 22.0607 18.1197C21.7794 18.4371 21.3978 18.6154 21 18.6154H3C2.60218 18.6154 2.22064 18.4371 1.93934 18.1197C1.65804 17.8023 1.5 17.3719 1.5 16.9231V3.38462C1.5 2.93579 1.65804 2.50534 1.93934 2.18797C2.22064 1.8706 2.60218 1.69231 3 1.69231H21ZM3 0C2.20435 0 1.44129 0.356592 0.87868 0.991331C0.316071 1.62607 0 2.48696 0 3.38462L0 16.9231C0 17.8207 0.316071 18.6816 0.87868 19.3164C1.44129 19.9511 2.20435 20.3077 3 20.3077H21C21.7956 20.3077 22.5587 19.9511 23.1213 19.3164C23.6839 18.6816 24 17.8207 24 16.9231V3.38462C24 2.48696 23.6839 1.62607 23.1213 0.991331C22.5587 0.356592 21.7956 0 21 0H3Z" fill="#F9D49A"/>
</svg>
